%TF.GenerationSoftware,KiCad,Pcbnew,8.0.5*%
%TF.CreationDate,2024-11-22T10:44:55-04:00*%
%TF.ProjectId,PCB para imprimir,50434220-7061-4726-9120-696d7072696d,rev?*%
%TF.SameCoordinates,Original*%
%TF.FileFunction,Legend,Top*%
%TF.FilePolarity,Positive*%
%FSLAX46Y46*%
G04 Gerber Fmt 4.6, Leading zero omitted, Abs format (unit mm)*
G04 Created by KiCad (PCBNEW 8.0.5) date 2024-11-22 10:44:55*
%MOMM*%
%LPD*%
G01*
G04 APERTURE LIST*
%ADD10C,0.150000*%
%ADD11C,0.120000*%
G04 APERTURE END LIST*
D10*
X189454819Y-48166666D02*
X188978628Y-48499999D01*
X189454819Y-48738094D02*
X188454819Y-48738094D01*
X188454819Y-48738094D02*
X188454819Y-48357142D01*
X188454819Y-48357142D02*
X188502438Y-48261904D01*
X188502438Y-48261904D02*
X188550057Y-48214285D01*
X188550057Y-48214285D02*
X188645295Y-48166666D01*
X188645295Y-48166666D02*
X188788152Y-48166666D01*
X188788152Y-48166666D02*
X188883390Y-48214285D01*
X188883390Y-48214285D02*
X188931009Y-48261904D01*
X188931009Y-48261904D02*
X188978628Y-48357142D01*
X188978628Y-48357142D02*
X188978628Y-48738094D01*
X188454819Y-47833332D02*
X188454819Y-47214285D01*
X188454819Y-47214285D02*
X188835771Y-47547618D01*
X188835771Y-47547618D02*
X188835771Y-47404761D01*
X188835771Y-47404761D02*
X188883390Y-47309523D01*
X188883390Y-47309523D02*
X188931009Y-47261904D01*
X188931009Y-47261904D02*
X189026247Y-47214285D01*
X189026247Y-47214285D02*
X189264342Y-47214285D01*
X189264342Y-47214285D02*
X189359580Y-47261904D01*
X189359580Y-47261904D02*
X189407200Y-47309523D01*
X189407200Y-47309523D02*
X189454819Y-47404761D01*
X189454819Y-47404761D02*
X189454819Y-47690475D01*
X189454819Y-47690475D02*
X189407200Y-47785713D01*
X189407200Y-47785713D02*
X189359580Y-47833332D01*
X221324819Y-61666666D02*
X220848628Y-61999999D01*
X221324819Y-62238094D02*
X220324819Y-62238094D01*
X220324819Y-62238094D02*
X220324819Y-61857142D01*
X220324819Y-61857142D02*
X220372438Y-61761904D01*
X220372438Y-61761904D02*
X220420057Y-61714285D01*
X220420057Y-61714285D02*
X220515295Y-61666666D01*
X220515295Y-61666666D02*
X220658152Y-61666666D01*
X220658152Y-61666666D02*
X220753390Y-61714285D01*
X220753390Y-61714285D02*
X220801009Y-61761904D01*
X220801009Y-61761904D02*
X220848628Y-61857142D01*
X220848628Y-61857142D02*
X220848628Y-62238094D01*
X220420057Y-61285713D02*
X220372438Y-61238094D01*
X220372438Y-61238094D02*
X220324819Y-61142856D01*
X220324819Y-61142856D02*
X220324819Y-60904761D01*
X220324819Y-60904761D02*
X220372438Y-60809523D01*
X220372438Y-60809523D02*
X220420057Y-60761904D01*
X220420057Y-60761904D02*
X220515295Y-60714285D01*
X220515295Y-60714285D02*
X220610533Y-60714285D01*
X220610533Y-60714285D02*
X220753390Y-60761904D01*
X220753390Y-60761904D02*
X221324819Y-61333332D01*
X221324819Y-61333332D02*
X221324819Y-60714285D01*
X200428571Y-43407200D02*
X200571428Y-43454819D01*
X200571428Y-43454819D02*
X200809523Y-43454819D01*
X200809523Y-43454819D02*
X200904761Y-43407200D01*
X200904761Y-43407200D02*
X200952380Y-43359580D01*
X200952380Y-43359580D02*
X200999999Y-43264342D01*
X200999999Y-43264342D02*
X200999999Y-43169104D01*
X200999999Y-43169104D02*
X200952380Y-43073866D01*
X200952380Y-43073866D02*
X200904761Y-43026247D01*
X200904761Y-43026247D02*
X200809523Y-42978628D01*
X200809523Y-42978628D02*
X200619047Y-42931009D01*
X200619047Y-42931009D02*
X200523809Y-42883390D01*
X200523809Y-42883390D02*
X200476190Y-42835771D01*
X200476190Y-42835771D02*
X200428571Y-42740533D01*
X200428571Y-42740533D02*
X200428571Y-42645295D01*
X200428571Y-42645295D02*
X200476190Y-42550057D01*
X200476190Y-42550057D02*
X200523809Y-42502438D01*
X200523809Y-42502438D02*
X200619047Y-42454819D01*
X200619047Y-42454819D02*
X200857142Y-42454819D01*
X200857142Y-42454819D02*
X200999999Y-42502438D01*
X201809523Y-43407200D02*
X201714285Y-43454819D01*
X201714285Y-43454819D02*
X201523809Y-43454819D01*
X201523809Y-43454819D02*
X201428571Y-43407200D01*
X201428571Y-43407200D02*
X201380952Y-43311961D01*
X201380952Y-43311961D02*
X201380952Y-42931009D01*
X201380952Y-42931009D02*
X201428571Y-42835771D01*
X201428571Y-42835771D02*
X201523809Y-42788152D01*
X201523809Y-42788152D02*
X201714285Y-42788152D01*
X201714285Y-42788152D02*
X201809523Y-42835771D01*
X201809523Y-42835771D02*
X201857142Y-42931009D01*
X201857142Y-42931009D02*
X201857142Y-43026247D01*
X201857142Y-43026247D02*
X201380952Y-43121485D01*
X202285714Y-42788152D02*
X202285714Y-43454819D01*
X202285714Y-42883390D02*
X202333333Y-42835771D01*
X202333333Y-42835771D02*
X202428571Y-42788152D01*
X202428571Y-42788152D02*
X202571428Y-42788152D01*
X202571428Y-42788152D02*
X202666666Y-42835771D01*
X202666666Y-42835771D02*
X202714285Y-42931009D01*
X202714285Y-42931009D02*
X202714285Y-43454819D01*
X203142857Y-43407200D02*
X203238095Y-43454819D01*
X203238095Y-43454819D02*
X203428571Y-43454819D01*
X203428571Y-43454819D02*
X203523809Y-43407200D01*
X203523809Y-43407200D02*
X203571428Y-43311961D01*
X203571428Y-43311961D02*
X203571428Y-43264342D01*
X203571428Y-43264342D02*
X203523809Y-43169104D01*
X203523809Y-43169104D02*
X203428571Y-43121485D01*
X203428571Y-43121485D02*
X203285714Y-43121485D01*
X203285714Y-43121485D02*
X203190476Y-43073866D01*
X203190476Y-43073866D02*
X203142857Y-42978628D01*
X203142857Y-42978628D02*
X203142857Y-42931009D01*
X203142857Y-42931009D02*
X203190476Y-42835771D01*
X203190476Y-42835771D02*
X203285714Y-42788152D01*
X203285714Y-42788152D02*
X203428571Y-42788152D01*
X203428571Y-42788152D02*
X203523809Y-42835771D01*
X210864761Y-52280057D02*
X210769523Y-52232438D01*
X210769523Y-52232438D02*
X210674285Y-52137200D01*
X210674285Y-52137200D02*
X210531428Y-51994342D01*
X210531428Y-51994342D02*
X210436190Y-51946723D01*
X210436190Y-51946723D02*
X210340952Y-51946723D01*
X210388571Y-52184819D02*
X210293333Y-52137200D01*
X210293333Y-52137200D02*
X210198095Y-52041961D01*
X210198095Y-52041961D02*
X210150476Y-51851485D01*
X210150476Y-51851485D02*
X210150476Y-51518152D01*
X210150476Y-51518152D02*
X210198095Y-51327676D01*
X210198095Y-51327676D02*
X210293333Y-51232438D01*
X210293333Y-51232438D02*
X210388571Y-51184819D01*
X210388571Y-51184819D02*
X210579047Y-51184819D01*
X210579047Y-51184819D02*
X210674285Y-51232438D01*
X210674285Y-51232438D02*
X210769523Y-51327676D01*
X210769523Y-51327676D02*
X210817142Y-51518152D01*
X210817142Y-51518152D02*
X210817142Y-51851485D01*
X210817142Y-51851485D02*
X210769523Y-52041961D01*
X210769523Y-52041961D02*
X210674285Y-52137200D01*
X210674285Y-52137200D02*
X210579047Y-52184819D01*
X210579047Y-52184819D02*
X210388571Y-52184819D01*
X211769523Y-52184819D02*
X211198095Y-52184819D01*
X211483809Y-52184819D02*
X211483809Y-51184819D01*
X211483809Y-51184819D02*
X211388571Y-51327676D01*
X211388571Y-51327676D02*
X211293333Y-51422914D01*
X211293333Y-51422914D02*
X211198095Y-51470533D01*
X199364761Y-52280057D02*
X199269523Y-52232438D01*
X199269523Y-52232438D02*
X199174285Y-52137200D01*
X199174285Y-52137200D02*
X199031428Y-51994342D01*
X199031428Y-51994342D02*
X198936190Y-51946723D01*
X198936190Y-51946723D02*
X198840952Y-51946723D01*
X198888571Y-52184819D02*
X198793333Y-52137200D01*
X198793333Y-52137200D02*
X198698095Y-52041961D01*
X198698095Y-52041961D02*
X198650476Y-51851485D01*
X198650476Y-51851485D02*
X198650476Y-51518152D01*
X198650476Y-51518152D02*
X198698095Y-51327676D01*
X198698095Y-51327676D02*
X198793333Y-51232438D01*
X198793333Y-51232438D02*
X198888571Y-51184819D01*
X198888571Y-51184819D02*
X199079047Y-51184819D01*
X199079047Y-51184819D02*
X199174285Y-51232438D01*
X199174285Y-51232438D02*
X199269523Y-51327676D01*
X199269523Y-51327676D02*
X199317142Y-51518152D01*
X199317142Y-51518152D02*
X199317142Y-51851485D01*
X199317142Y-51851485D02*
X199269523Y-52041961D01*
X199269523Y-52041961D02*
X199174285Y-52137200D01*
X199174285Y-52137200D02*
X199079047Y-52184819D01*
X199079047Y-52184819D02*
X198888571Y-52184819D01*
X199698095Y-51280057D02*
X199745714Y-51232438D01*
X199745714Y-51232438D02*
X199840952Y-51184819D01*
X199840952Y-51184819D02*
X200079047Y-51184819D01*
X200079047Y-51184819D02*
X200174285Y-51232438D01*
X200174285Y-51232438D02*
X200221904Y-51280057D01*
X200221904Y-51280057D02*
X200269523Y-51375295D01*
X200269523Y-51375295D02*
X200269523Y-51470533D01*
X200269523Y-51470533D02*
X200221904Y-51613390D01*
X200221904Y-51613390D02*
X199650476Y-52184819D01*
X199650476Y-52184819D02*
X200269523Y-52184819D01*
X221324819Y-48666666D02*
X220848628Y-48999999D01*
X221324819Y-49238094D02*
X220324819Y-49238094D01*
X220324819Y-49238094D02*
X220324819Y-48857142D01*
X220324819Y-48857142D02*
X220372438Y-48761904D01*
X220372438Y-48761904D02*
X220420057Y-48714285D01*
X220420057Y-48714285D02*
X220515295Y-48666666D01*
X220515295Y-48666666D02*
X220658152Y-48666666D01*
X220658152Y-48666666D02*
X220753390Y-48714285D01*
X220753390Y-48714285D02*
X220801009Y-48761904D01*
X220801009Y-48761904D02*
X220848628Y-48857142D01*
X220848628Y-48857142D02*
X220848628Y-49238094D01*
X221324819Y-47714285D02*
X221324819Y-48285713D01*
X221324819Y-47999999D02*
X220324819Y-47999999D01*
X220324819Y-47999999D02*
X220467676Y-48095237D01*
X220467676Y-48095237D02*
X220562914Y-48190475D01*
X220562914Y-48190475D02*
X220610533Y-48285713D01*
X189954819Y-61666666D02*
X189478628Y-61999999D01*
X189954819Y-62238094D02*
X188954819Y-62238094D01*
X188954819Y-62238094D02*
X188954819Y-61857142D01*
X188954819Y-61857142D02*
X189002438Y-61761904D01*
X189002438Y-61761904D02*
X189050057Y-61714285D01*
X189050057Y-61714285D02*
X189145295Y-61666666D01*
X189145295Y-61666666D02*
X189288152Y-61666666D01*
X189288152Y-61666666D02*
X189383390Y-61714285D01*
X189383390Y-61714285D02*
X189431009Y-61761904D01*
X189431009Y-61761904D02*
X189478628Y-61857142D01*
X189478628Y-61857142D02*
X189478628Y-62238094D01*
X189288152Y-60809523D02*
X189954819Y-60809523D01*
X188907200Y-61047618D02*
X189621485Y-61285713D01*
X189621485Y-61285713D02*
X189621485Y-60666666D01*
X212023809Y-43374819D02*
X212023809Y-42374819D01*
X212023809Y-42755771D02*
X212119047Y-42708152D01*
X212119047Y-42708152D02*
X212309523Y-42708152D01*
X212309523Y-42708152D02*
X212404761Y-42755771D01*
X212404761Y-42755771D02*
X212452380Y-42803390D01*
X212452380Y-42803390D02*
X212499999Y-42898628D01*
X212499999Y-42898628D02*
X212499999Y-43184342D01*
X212499999Y-43184342D02*
X212452380Y-43279580D01*
X212452380Y-43279580D02*
X212404761Y-43327200D01*
X212404761Y-43327200D02*
X212309523Y-43374819D01*
X212309523Y-43374819D02*
X212119047Y-43374819D01*
X212119047Y-43374819D02*
X212023809Y-43327200D01*
X213357142Y-42708152D02*
X213357142Y-43374819D01*
X212928571Y-42708152D02*
X212928571Y-43231961D01*
X212928571Y-43231961D02*
X212976190Y-43327200D01*
X212976190Y-43327200D02*
X213071428Y-43374819D01*
X213071428Y-43374819D02*
X213214285Y-43374819D01*
X213214285Y-43374819D02*
X213309523Y-43327200D01*
X213309523Y-43327200D02*
X213357142Y-43279580D01*
X213738095Y-42708152D02*
X214261904Y-42708152D01*
X214261904Y-42708152D02*
X213738095Y-43374819D01*
X213738095Y-43374819D02*
X214261904Y-43374819D01*
X214547619Y-42708152D02*
X215071428Y-42708152D01*
X215071428Y-42708152D02*
X214547619Y-43374819D01*
X214547619Y-43374819D02*
X215071428Y-43374819D01*
X198412381Y-66954819D02*
X199031428Y-66954819D01*
X199031428Y-66954819D02*
X198698095Y-67335771D01*
X198698095Y-67335771D02*
X198840952Y-67335771D01*
X198840952Y-67335771D02*
X198936190Y-67383390D01*
X198936190Y-67383390D02*
X198983809Y-67431009D01*
X198983809Y-67431009D02*
X199031428Y-67526247D01*
X199031428Y-67526247D02*
X199031428Y-67764342D01*
X199031428Y-67764342D02*
X198983809Y-67859580D01*
X198983809Y-67859580D02*
X198936190Y-67907200D01*
X198936190Y-67907200D02*
X198840952Y-67954819D01*
X198840952Y-67954819D02*
X198555238Y-67954819D01*
X198555238Y-67954819D02*
X198460000Y-67907200D01*
X198460000Y-67907200D02*
X198412381Y-67859580D01*
X199460000Y-67859580D02*
X199507619Y-67907200D01*
X199507619Y-67907200D02*
X199460000Y-67954819D01*
X199460000Y-67954819D02*
X199412381Y-67907200D01*
X199412381Y-67907200D02*
X199460000Y-67859580D01*
X199460000Y-67859580D02*
X199460000Y-67954819D01*
X199840952Y-66954819D02*
X200459999Y-66954819D01*
X200459999Y-66954819D02*
X200126666Y-67335771D01*
X200126666Y-67335771D02*
X200269523Y-67335771D01*
X200269523Y-67335771D02*
X200364761Y-67383390D01*
X200364761Y-67383390D02*
X200412380Y-67431009D01*
X200412380Y-67431009D02*
X200459999Y-67526247D01*
X200459999Y-67526247D02*
X200459999Y-67764342D01*
X200459999Y-67764342D02*
X200412380Y-67859580D01*
X200412380Y-67859580D02*
X200364761Y-67907200D01*
X200364761Y-67907200D02*
X200269523Y-67954819D01*
X200269523Y-67954819D02*
X199983809Y-67954819D01*
X199983809Y-67954819D02*
X199888571Y-67907200D01*
X199888571Y-67907200D02*
X199840952Y-67859580D01*
X210738095Y-66954819D02*
X210261905Y-66954819D01*
X210261905Y-66954819D02*
X210214286Y-67431009D01*
X210214286Y-67431009D02*
X210261905Y-67383390D01*
X210261905Y-67383390D02*
X210357143Y-67335771D01*
X210357143Y-67335771D02*
X210595238Y-67335771D01*
X210595238Y-67335771D02*
X210690476Y-67383390D01*
X210690476Y-67383390D02*
X210738095Y-67431009D01*
X210738095Y-67431009D02*
X210785714Y-67526247D01*
X210785714Y-67526247D02*
X210785714Y-67764342D01*
X210785714Y-67764342D02*
X210738095Y-67859580D01*
X210738095Y-67859580D02*
X210690476Y-67907200D01*
X210690476Y-67907200D02*
X210595238Y-67954819D01*
X210595238Y-67954819D02*
X210357143Y-67954819D01*
X210357143Y-67954819D02*
X210261905Y-67907200D01*
X210261905Y-67907200D02*
X210214286Y-67859580D01*
D11*
%TO.C,R3*%
X190630000Y-45230000D02*
X190630000Y-51770000D01*
X190630000Y-51770000D02*
X193370000Y-51770000D01*
X192000000Y-44460000D02*
X192000000Y-45230000D01*
X192000000Y-52540000D02*
X192000000Y-51770000D01*
X193370000Y-45230000D02*
X190630000Y-45230000D01*
X193370000Y-51770000D02*
X193370000Y-45230000D01*
%TO.C,R2*%
X217130000Y-58230000D02*
X217130000Y-64770000D01*
X217130000Y-64770000D02*
X219870000Y-64770000D01*
X218500000Y-57460000D02*
X218500000Y-58230000D01*
X218500000Y-65540000D02*
X218500000Y-64770000D01*
X219870000Y-58230000D02*
X217130000Y-58230000D01*
X219870000Y-64770000D02*
X219870000Y-58230000D01*
%TO.C,Sens*%
X194420000Y-44190000D02*
X194420000Y-51810000D01*
X194420000Y-45460000D02*
X204580000Y-45460000D01*
X194420000Y-51810000D02*
X204580000Y-51810000D01*
X204580000Y-44190000D02*
X194420000Y-44190000D01*
X204580000Y-51810000D02*
X204580000Y-44190000D01*
%TO.C,Q1*%
X205840000Y-52730000D02*
X205840000Y-57371000D01*
X205840000Y-52730000D02*
X216080000Y-52730000D01*
X205840000Y-54240000D02*
X216080000Y-54240000D01*
X205840000Y-57371000D02*
X216080000Y-57371000D01*
X209110000Y-52730000D02*
X209110000Y-54240000D01*
X212811000Y-52730000D02*
X212811000Y-54240000D01*
X216080000Y-52730000D02*
X216080000Y-57371000D01*
%TO.C,Q2*%
X194340000Y-52730000D02*
X194340000Y-57371000D01*
X194340000Y-52730000D02*
X204580000Y-52730000D01*
X194340000Y-54240000D02*
X204580000Y-54240000D01*
X194340000Y-57371000D02*
X204580000Y-57371000D01*
X197610000Y-52730000D02*
X197610000Y-54240000D01*
X201311000Y-52730000D02*
X201311000Y-54240000D01*
X204580000Y-52730000D02*
X204580000Y-57371000D01*
%TO.C,R1*%
X217130000Y-45230000D02*
X217130000Y-51770000D01*
X217130000Y-51770000D02*
X219870000Y-51770000D01*
X218500000Y-44460000D02*
X218500000Y-45230000D01*
X218500000Y-52540000D02*
X218500000Y-51770000D01*
X219870000Y-45230000D02*
X217130000Y-45230000D01*
X219870000Y-51770000D02*
X219870000Y-45230000D01*
%TO.C,R4*%
X190630000Y-58230000D02*
X190630000Y-64770000D01*
X190630000Y-64770000D02*
X193370000Y-64770000D01*
X192000000Y-57460000D02*
X192000000Y-58230000D01*
X192000000Y-65540000D02*
X192000000Y-64770000D01*
X193370000Y-58230000D02*
X190630000Y-58230000D01*
X193370000Y-64770000D02*
X193370000Y-58230000D01*
%TO.C,buzz*%
X205880000Y-44190000D02*
X205880000Y-51810000D01*
X205880000Y-51810000D02*
X216040000Y-51810000D01*
X216040000Y-44190000D02*
X205880000Y-44190000D01*
X216040000Y-50540000D02*
X205880000Y-50540000D01*
X216040000Y-51810000D02*
X216040000Y-44190000D01*
%TO.C,3.3*%
X194380000Y-58690000D02*
X194380000Y-66310000D01*
X194380000Y-66310000D02*
X204540000Y-66310000D01*
X204540000Y-58690000D02*
X194380000Y-58690000D01*
X204540000Y-65040000D02*
X194380000Y-65040000D01*
X204540000Y-66310000D02*
X204540000Y-58690000D01*
%TO.C,5*%
X205880000Y-58690000D02*
X205880000Y-66310000D01*
X205880000Y-66310000D02*
X216040000Y-66310000D01*
X216040000Y-58690000D02*
X205880000Y-58690000D01*
X216040000Y-65040000D02*
X205880000Y-65040000D01*
X216040000Y-66310000D02*
X216040000Y-58690000D01*
%TD*%
M02*
