%TF.GenerationSoftware,KiCad,Pcbnew,8.0.5*%
%TF.CreationDate,2024-11-22T10:44:55-04:00*%
%TF.ProjectId,PCB para imprimir,50434220-7061-4726-9120-696d7072696d,rev?*%
%TF.SameCoordinates,Original*%
%TF.FileFunction,Copper,L1,Top*%
%TF.FilePolarity,Positive*%
%FSLAX46Y46*%
G04 Gerber Fmt 4.6, Leading zero omitted, Abs format (unit mm)*
G04 Created by KiCad (PCBNEW 8.0.5) date 2024-11-22 10:44:55*
%MOMM*%
%LPD*%
G01*
G04 APERTURE LIST*
%TA.AperFunction,ComponentPad*%
%ADD10C,1.600000*%
%TD*%
%TA.AperFunction,ComponentPad*%
%ADD11O,1.600000X1.600000*%
%TD*%
%TA.AperFunction,ComponentPad*%
%ADD12R,3.000000X3.000000*%
%TD*%
%TA.AperFunction,ComponentPad*%
%ADD13C,3.000000*%
%TD*%
%TA.AperFunction,ComponentPad*%
%ADD14R,1.905000X2.000000*%
%TD*%
%TA.AperFunction,ComponentPad*%
%ADD15O,1.905000X2.000000*%
%TD*%
%TA.AperFunction,Conductor*%
%ADD16C,1.000000*%
%TD*%
G04 APERTURE END LIST*
D10*
%TO.P,R3,1*%
%TO.N,Net-(Sens1-Pin_1)*%
X192000000Y-43420000D03*
D11*
%TO.P,R3,2*%
%TO.N,Net-(Q2-G)*%
X192000000Y-53580000D03*
%TD*%
D10*
%TO.P,R2,1*%
%TO.N,/buzz*%
X218500000Y-56420000D03*
D11*
%TO.P,R2,2*%
%TO.N,+5V*%
X218500000Y-66580000D03*
%TD*%
D12*
%TO.P,Sens,1,Pin_1*%
%TO.N,Net-(Sens1-Pin_1)*%
X202040000Y-48000000D03*
D13*
%TO.P,Sens,2,Pin_2*%
%TO.N,/ESP_sens*%
X196960000Y-48000000D03*
%TD*%
D14*
%TO.P,Q1,1,D*%
%TO.N,/buzz*%
X208420000Y-56000000D03*
D15*
%TO.P,Q1,2,G*%
%TO.N,Net-(Q1-G)*%
X210960000Y-56000000D03*
%TO.P,Q1,3,S*%
%TO.N,GND*%
X213500000Y-56000000D03*
%TD*%
D14*
%TO.P,Q2,1,D*%
%TO.N,/ESP_sens*%
X196920000Y-56000000D03*
D15*
%TO.P,Q2,2,G*%
%TO.N,Net-(Q2-G)*%
X199460000Y-56000000D03*
%TO.P,Q2,3,S*%
%TO.N,GND*%
X202000000Y-56000000D03*
%TD*%
D10*
%TO.P,R1,1*%
%TO.N,Net-(IN1-Pin_1)*%
X218500000Y-43420000D03*
D11*
%TO.P,R1,2*%
%TO.N,Net-(Q1-G)*%
X218500000Y-53580000D03*
%TD*%
D10*
%TO.P,R4,1*%
%TO.N,/ESP_sens*%
X192000000Y-56420000D03*
D11*
%TO.P,R4,2*%
%TO.N,+3.3V*%
X192000000Y-66580000D03*
%TD*%
D12*
%TO.P,buzz,1,Pin_1*%
%TO.N,Net-(IN1-Pin_1)*%
X208420000Y-48000000D03*
D13*
%TO.P,buzz,2,Pin_2*%
%TO.N,/buzz*%
X213500000Y-48000000D03*
%TD*%
D12*
%TO.P,3.3,1,Pin_1*%
%TO.N,+3.3V*%
X196920000Y-62500000D03*
D13*
%TO.P,3.3,2,Pin_2*%
%TO.N,GND*%
X202000000Y-62500000D03*
%TD*%
D12*
%TO.P,5,1,Pin_1*%
%TO.N,+5V*%
X208420000Y-62500000D03*
D13*
%TO.P,5,2,Pin_2*%
%TO.N,GND*%
X213500000Y-62500000D03*
%TD*%
D16*
%TO.N,Net-(IN1-Pin_1)*%
X208420000Y-48000000D02*
X208420000Y-45080000D01*
X208420000Y-45080000D02*
X210080000Y-43420000D01*
X210080000Y-43420000D02*
X218500000Y-43420000D01*
%TO.N,GND*%
X213500000Y-62500000D02*
X213500000Y-60500000D01*
X202500000Y-59000000D02*
X212000000Y-59000000D01*
X202000000Y-56000000D02*
X202000000Y-60500000D01*
X202000000Y-59500000D02*
X202500000Y-59000000D01*
X202000000Y-62500000D02*
X202000000Y-60500000D01*
X202000000Y-60500000D02*
X202000000Y-59500000D01*
X212000000Y-59000000D02*
X213500000Y-60500000D01*
X213500000Y-60500000D02*
X213500000Y-56000000D01*
%TO.N,/buzz*%
X208420000Y-53580000D02*
X211000000Y-51000000D01*
X221500000Y-55500000D02*
X220500000Y-56500000D01*
X221500000Y-51500000D02*
X221500000Y-55500000D01*
X220500000Y-56500000D02*
X220420000Y-56420000D01*
X208420000Y-56000000D02*
X208420000Y-53580000D01*
X218000000Y-48000000D02*
X221500000Y-51500000D01*
X213500000Y-50000000D02*
X213500000Y-48000000D01*
X213500000Y-48000000D02*
X218000000Y-48000000D01*
X212500000Y-51000000D02*
X213500000Y-50000000D01*
X211000000Y-51000000D02*
X212500000Y-51000000D01*
X220420000Y-56420000D02*
X218500000Y-56420000D01*
%TO.N,Net-(Q1-G)*%
X211920000Y-53580000D02*
X210960000Y-54540000D01*
X210960000Y-54540000D02*
X210960000Y-56000000D01*
X218500000Y-53580000D02*
X211920000Y-53580000D01*
%TO.N,/ESP_sens*%
X196500000Y-56420000D02*
X196920000Y-56000000D01*
X191000000Y-48000000D02*
X189000000Y-50000000D01*
X192000000Y-56420000D02*
X196500000Y-56420000D01*
X189000000Y-50000000D02*
X189000000Y-55500000D01*
X189000000Y-55500000D02*
X189920000Y-56420000D01*
X189920000Y-56420000D02*
X192000000Y-56420000D01*
X196960000Y-48000000D02*
X191000000Y-48000000D01*
%TO.N,Net-(Q2-G)*%
X192000000Y-53580000D02*
X198580000Y-53580000D01*
X199460000Y-54460000D02*
X199460000Y-56000000D01*
X198580000Y-53580000D02*
X199460000Y-54460000D01*
%TO.N,+5V*%
X208420000Y-62500000D02*
X208420000Y-62920000D01*
X213580000Y-66580000D02*
X218500000Y-66580000D01*
X212000000Y-66500000D02*
X213500000Y-66500000D01*
X208420000Y-62920000D02*
X212000000Y-66500000D01*
X213500000Y-66500000D02*
X213580000Y-66580000D01*
%TO.N,Net-(Sens1-Pin_1)*%
X200420000Y-43420000D02*
X192000000Y-43420000D01*
X202040000Y-48000000D02*
X202040000Y-45040000D01*
X202040000Y-45040000D02*
X200420000Y-43420000D01*
%TO.N,+3.3V*%
X192000000Y-66580000D02*
X192840000Y-66580000D01*
X192840000Y-66580000D02*
X196920000Y-62500000D01*
%TD*%
M02*
